<svg xmlns="http://www.w3.org/2000/svg" version="1.1" xmlns:xlink="http://www.w3.org/1999/xlink" xmlns:svgjs="http://svgjs.dev/svgjs" width="1000" height="1000" viewBox="0 0 1000 1000"><g transform="matrix(1,0,0,1,0,0.00012242880660551236)"><svg viewBox="0 0 280 280" data-background-color="#ffffff" preserveAspectRatio="xMidYMid meet" height="1000" width="1000" xmlns="http://www.w3.org/2000/svg" xmlns:xlink="http://www.w3.org/1999/xlink"><g id="tight-bounds" transform="matrix(1,0,0,1,0,-0.000034280065847269725)"><svg viewBox="0 0 280 280" height="280" width="280"><g><svg viewBox="0 0 280 280" height="280" width="280"><g><svg viewBox="0 0 280 280" height="280" width="280"><g id="textblocktransform"><svg viewBox="0 0 280 280" height="280" width="280" id="textblock"><g><svg viewBox="0 0 280 280" height="280" width="280"><g transform="matrix(1,0,0,1,57.50420886156945,57.50420886156945)"><svg viewBox="0 0 164.9915822768611 164.9915822768611" height="164.9915822768611" width="164.9915822768611"><g><circle r="82" cx="82.49579113843055" cy="82.49579113843055" fill="#6936f5" data-fill-palette-color="accent"></circle><svg xmlns="http://www.w3.org/2000/svg" xmlns:xlink="http://www.w3.org/1999/xlink" version="1.0" x="24.748737341529164" y="24.74873734152917" viewBox="24.722253799438477 30.38105010986328 50.621849060058594 39.318946838378906" enable-background="new 0 0 100 100" xml:space="preserve" height="115.49410759380275" width="115.49410759380275" class="icon-o-0" data-fill-palette-color="quaternary" id="o-0"><path d="M26.3 69.7c-0.3 0-0.6-0.1-0.9-0.3-0.7-0.5-0.9-1.5-0.4-2.2L40.6 44c0.3-0.5 0.9-0.7 1.4-0.7 0.6 0 1.1 0.3 1.3 0.8l5.6 10 13.7-22.9c0.3-0.6 1-0.9 1.6-0.8 0.6 0.1 1.2 0.5 1.3 1.2L75.3 66c0.2 0.9-0.3 1.8-1.1 2-0.9 0.2-1.8-0.3-2-1.1L63.5 36 50.3 58.1c-0.3 0.5-0.8 0.8-1.4 0.8 0 0 0 0 0 0-0.6 0-1.1-0.3-1.4-0.8L41.8 48l-14.2 21C27.3 69.4 26.8 69.7 26.3 69.7z" fill="#ffffff" data-fill-palette-color="quaternary"></path><path d="M61.6 56c-0.1 0-0.2 0-0.3 0-0.5-0.1-0.9-0.4-1.1-0.8l-4.8-9.5c-0.4-0.8-0.1-1.8 0.7-2.2 0.8-0.4 1.8-0.1 2.2 0.7l4 7.7 5.1-4.1c0.7-0.6 1.7-0.4 2.3 0.3 0.6 0.7 0.4 1.7-0.3 2.3l-6.7 5.3C62.3 55.9 61.9 56 61.6 56z" fill="#ffffff" data-fill-palette-color="quaternary"></path></svg></g></svg></g><path d="M9.945 184.832l-1.156-3.64 20.547-6.522 3.939 12.41-3.085 0.979-2.784-8.77-5.81 1.845 2.372 7.475-3.075 0.976-2.373-7.475zM26.67 195.876v0l-2.701 0.464 2.392 4.957 2.044-1.825c0.876-0.816 1.787-1.63 2.734-2.442 0.955-0.809 1.898-1.611 2.829-2.408v0l-0.058-0.12c-1.218 0.248-2.434 0.494-3.646 0.739-1.212 0.245-2.41 0.456-3.594 0.635zM14.895 197.861l-1.687-3.495 22.464-3.05 1.948 4.038-16.366 15.686-1.744-3.614 4.519-4.052-3.15-6.529zM27.474 221.306v0c-0.748-1.137-1.246-2.334-1.494-3.589-0.247-1.255-0.215-2.507 0.097-3.755 0.315-1.242 0.91-2.457 1.783-3.643 0.878-1.181 2.061-2.261 3.552-3.241v0c1.467-0.965 2.926-1.616 4.376-1.951 1.45-0.335 2.824-0.396 4.122-0.182 1.294 0.208 2.481 0.674 3.56 1.398 1.079 0.724 1.993 1.655 2.742 2.792v0c0.748 1.137 1.185 2.297 1.31 3.478 0.119 1.185 0.062 2.261-0.172 3.23v0l-3.187-0.348c0.163-0.792 0.206-1.557 0.127-2.296-0.079-0.739-0.346-1.455-0.803-2.149v0c-0.483-0.734-1.077-1.308-1.782-1.724-0.709-0.422-1.493-0.672-2.352-0.75-0.853-0.083-1.764 0.02-2.732 0.306-0.972 0.281-1.962 0.753-2.969 1.415v0c-2.059 1.355-3.377 2.862-3.955 4.522-0.582 1.654-0.372 3.244 0.631 4.768v0c0.531 0.808 1.174 1.412 1.926 1.813 0.753 0.401 1.571 0.678 2.454 0.83v0l-0.882 3.026c-1.33-0.176-2.53-0.588-3.601-1.237-1.074-0.654-1.991-1.558-2.751-2.713zM43.362 240.33l-8.751-10.037 16.249-14.167 8.529 9.783-2.44 2.128-6.019-6.905-4.149 3.617 5.094 5.843-2.433 2.12-5.093-5.842-4.796 4.181 6.242 7.158zM55.796 250.828l-2.903-2.223 13.106-17.115 3.113 2.384-2.04 13.717-1.036 4.981 0.105 0.081c0.613-0.946 1.264-1.964 1.955-3.056 0.685-1.096 1.394-2.123 2.126-3.08v0l5.693-7.435 2.903 2.223-13.106 17.116-3.114-2.384 2.041-13.717 1.03-4.974-0.106-0.081c-0.625 0.962-1.272 1.975-1.942 3.041-0.664 1.069-1.363 2.082-2.095 3.038v0zM79.062 265.906v0c-1.253-0.644-2.28-1.462-3.079-2.454-0.799-0.992-1.347-2.116-1.644-3.37-0.294-1.245-0.331-2.589-0.111-4.03 0.223-1.447 0.736-2.951 1.539-4.514v0c0.793-1.544 1.71-2.822 2.75-3.833 1.037-1.006 2.141-1.739 3.312-2.202 1.177-0.459 2.399-0.647 3.665-0.563 1.266 0.084 2.525 0.448 3.779 1.092v0c1.247 0.641 2.274 1.451 3.079 2.432 0.805 0.98 1.367 2.084 1.685 3.311 0.324 1.231 0.377 2.559 0.157 3.985-0.217 1.435-0.722 2.924-1.515 4.468v0c-0.803 1.562-1.727 2.855-2.773 3.879-1.037 1.021-2.157 1.77-3.359 2.247-1.199 0.486-2.434 0.693-3.706 0.621-1.272-0.072-2.532-0.428-3.779-1.069zM80.583 262.945v0c0.757 0.389 1.524 0.572 2.3 0.551 0.783-0.019 1.548-0.227 2.295-0.624 0.744-0.391 1.455-0.963 2.134-1.717 0.681-0.745 1.298-1.656 1.852-2.733v0c1.104-2.15 1.526-4.065 1.264-5.746-0.265-1.674-1.157-2.902-2.677-3.683v0c-1.526-0.784-3.047-0.796-4.562-0.036-1.519 0.766-2.83 2.224-3.935 4.373v0c-0.554 1.078-0.935 2.11-1.143 3.098-0.212 0.993-0.26 1.906-0.145 2.739 0.113 0.839 0.386 1.58 0.821 2.224 0.434 0.644 1.033 1.162 1.796 1.554zM96.658 272.887l-3.633-1.177 6.646-20.507 6.926 2.244c1.069 0.346 2.028 0.775 2.879 1.288 0.852 0.505 1.536 1.102 2.049 1.791 0.516 0.682 0.842 1.475 0.979 2.378 0.139 0.897 0.022 1.918-0.349 3.065v0c-0.51 1.574-1.293 2.719-2.348 3.436-1.055 0.717-2.267 1.087-3.633 1.109v0l2.112 10.142-4.07-1.319-1.82-9.457-3.137-1.017zM102.357 255.304l-2.163 6.674 2.914 0.945c1.405 0.455 2.572 0.511 3.499 0.167 0.936-0.348 1.594-1.108 1.973-2.28v0c0.384-1.185 0.278-2.128-0.317-2.829-0.589-0.699-1.587-1.276-2.992-1.732v0zM118.829 278.308l-5.887-0.956 3.453-21.278 5.695 0.924c3.252 0.528 5.646 1.82 7.182 3.875 1.537 2.049 2.02 4.831 1.449 8.346v0c-0.285 1.754-0.772 3.268-1.461 4.543-0.682 1.269-1.536 2.282-2.562 3.039-1.019 0.752-2.19 1.255-3.514 1.51-1.317 0.255-2.769 0.254-4.355-0.003zM119.668 259.75l-2.46 15.16 1.663 0.27c2.171 0.352 3.935-0.003 5.294-1.066 1.364-1.055 2.26-2.896 2.686-5.523v0c0.422-2.601 0.145-4.594-0.83-5.98-0.983-1.38-2.546-2.244-4.69-2.592v0zM150.685 279.982v0c-1.448 0.077-2.804-0.092-4.067-0.509-1.27-0.416-2.382-1.073-3.337-1.969-0.961-0.896-1.734-2.021-2.317-3.374-0.577-1.353-0.913-2.92-1.008-4.701v0c-0.094-1.754 0.087-3.342 0.543-4.764 0.449-1.422 1.103-2.639 1.963-3.654 0.859-1.014 1.894-1.806 3.104-2.374 1.217-0.57 2.536-0.892 3.957-0.968v0c1.536-0.082 2.853 0.127 3.951 0.627 1.09 0.501 1.994 1.087 2.712 1.757v0l-1.908 2.577c-0.572-0.501-1.204-0.914-1.897-1.238-0.685-0.325-1.535-0.46-2.547-0.406v0c-0.965 0.052-1.826 0.278-2.582 0.68-0.763 0.402-1.405 0.954-1.926 1.657-0.522 0.696-0.913 1.535-1.175 2.517-0.254 0.982-0.349 2.074-0.285 3.277v0c0.131 2.461 0.788 4.359 1.971 5.694 1.183 1.334 2.862 1.944 5.037 1.827v0c0.612-0.033 1.189-0.145 1.731-0.338 0.535-0.199 0.971-0.461 1.308-0.786v0l-0.248-4.639-4.079 0.217-0.167-3.12 7.506-0.401 0.505 9.473c-0.689 0.766-1.618 1.426-2.788 1.98-1.17 0.56-2.489 0.879-3.957 0.958zM167.211 277.281l-3.735 0.797-4.499-21.082 7.121-1.52c1.099-0.234 2.144-0.343 3.136-0.325 0.991 0.011 1.881 0.187 2.67 0.527 0.788 0.333 1.467 0.856 2.038 1.57 0.569 0.707 0.979 1.65 1.23 2.828v0c0.345 1.618 0.24 3.001-0.315 4.15-0.555 1.149-1.419 2.075-2.592 2.777v0l6.901 7.727-4.185 0.893-6.304-7.279-3.226 0.688zM163.354 259.205l1.464 6.861 2.996-0.64c1.445-0.308 2.483-0.843 3.114-1.604 0.636-0.769 0.826-1.756 0.568-2.961v0c-0.26-1.218-0.823-1.982-1.689-2.292-0.86-0.311-2.012-0.312-3.457-0.004v0zM183.369 260.736v0l0.249 2.729 5.131-1.991-1.657-2.183c-0.744-0.938-1.483-1.911-2.217-2.918-0.73-1.016-1.456-2.02-2.177-3.012v0l-0.123 0.048c0.15 1.234 0.299 2.465 0.447 3.693 0.148 1.228 0.264 2.439 0.347 3.634zM184.415 272.631l-3.618 1.404-1.259-22.635 4.18-1.622 14.339 17.559-3.741 1.452-3.681-4.826-6.759 2.623zM204.691 263.79l-3.352 1.83-10.333-18.919 5.96-3.255c1.04-0.568 2.061-0.998 3.065-1.29 1.001-0.298 1.955-0.397 2.864-0.296 0.912 0.107 1.752 0.432 2.521 0.974 0.769 0.542 1.454 1.362 2.055 2.461v0c0.571 1.046 0.885 2.053 0.941 3.023 0.056 0.97-0.102 1.886-0.476 2.75-0.365 0.866-0.921 1.659-1.669 2.378-0.742 0.715-1.624 1.352-2.645 1.91v0l-2.724 1.488zM195.831 247.568l3.598 6.587 2.465-1.346c2.772-1.514 3.532-3.418 2.279-5.712v0c-0.653-1.195-1.464-1.822-2.436-1.882-0.968-0.053-2.154 0.304-3.557 1.071v0zM221.855 252.821l-3.032 2.322-13.108-17.114 3.032-2.323 5.272 6.883 6.931-5.309-5.271-6.883 3.04-2.328 13.108 17.114-3.04 2.329-5.812-7.589-6.932 5.309zM239.114 237.943l-2.729 2.672-15.08-15.404 2.729-2.672zM247.543 228.405v0c-0.91 1.129-2.002 2.046-3.277 2.749-1.279 0.709-2.634 1.148-4.064 1.316v0l-0.624-3.375c1.045-0.146 2.054-0.461 3.028-0.943 0.969-0.487 1.766-1.117 2.39-1.891v0c0.769-0.954 1.158-1.839 1.167-2.653 0.004-0.819-0.318-1.489-0.965-2.01v0c-0.345-0.278-0.69-0.446-1.034-0.506-0.341-0.065-0.694-0.056-1.058 0.027-0.368 0.088-0.757 0.229-1.167 0.423-0.406 0.189-0.837 0.41-1.294 0.662v0l-2.867 1.507c-0.499 0.272-1.04 0.504-1.624 0.698-0.579 0.198-1.179 0.313-1.8 0.346-0.625 0.038-1.256-0.037-1.891-0.225-0.635-0.188-1.263-0.532-1.883-1.032v0c-0.663-0.534-1.167-1.172-1.513-1.914-0.347-0.752-0.534-1.545-0.561-2.38-0.028-0.844 0.119-1.71 0.439-2.597 0.317-0.881 0.806-1.733 1.469-2.554v0c0.786-0.975 1.735-1.763 2.847-2.362 1.117-0.595 2.265-0.955 3.442-1.082v0l0.669 3.044c-0.885 0.187-1.69 0.47-2.415 0.848-0.72 0.373-1.371 0.92-1.951 1.64v0c-0.645 0.8-0.987 1.583-1.026 2.348-0.035 0.759 0.256 1.386 0.871 1.881v0c0.323 0.261 0.659 0.413 1.008 0.458 0.353 0.04 0.715 0.008 1.086-0.095 0.381-0.104 0.778-0.26 1.192-0.469 0.404-0.208 0.811-0.426 1.222-0.655v0l2.791-1.527c0.604-0.326 1.21-0.585 1.82-0.777 0.599-0.19 1.201-0.291 1.804-0.303 0.6-0.006 1.204 0.096 1.813 0.306 0.607 0.201 1.221 0.551 1.841 1.051v0c0.684 0.551 1.214 1.206 1.591 1.964 0.377 0.758 0.581 1.579 0.614 2.461 0.037 0.887-0.113 1.811-0.45 2.772-0.333 0.956-0.88 1.905-1.64 2.849zM256.504 214.719l-1.735 2.996-18.655-10.804 2.165-3.738 11.043 1.982c0.709 0.135 1.428 0.284 2.159 0.448 0.728 0.17 1.456 0.324 2.186 0.464v0l0.062-0.106c-0.484-0.564-0.982-1.116-1.495-1.657-0.516-0.535-1.007-1.079-1.474-1.632v0l-7.266-8.504 2.18-3.764 18.655 10.804-1.766 3.048-8.527-4.938c-0.436-0.252-0.902-0.542-1.397-0.869-0.495-0.326-0.995-0.659-1.499-0.997-0.5-0.345-0.986-0.689-1.456-1.032-0.473-0.352-0.917-0.672-1.332-0.961v0l-0.061 0.106 3.454 4.019 6.616 7.915-1.136 1.961-10.173-1.772-5.19-1.024-0.066 0.115c0.46 0.211 0.957 0.44 1.491 0.687 0.528 0.243 1.068 0.493 1.619 0.749 0.552 0.257 1.092 0.518 1.622 0.786 0.53 0.267 1.012 0.527 1.448 0.779v0zM271.415 182.34l-4.65 12.478-20.2-7.526 4.531-12.162 3.034 1.13-3.198 8.583 5.157 1.922 2.707-7.263 3.023 1.127-2.706 7.263 5.962 2.221 3.316-8.899z" fill="#7a26c1" data-fill-palette-color="primary"></path><path d="M25.368 105.419L24.212 109.059 3.665 102.537 7.604 90.127 10.69 91.107 7.906 99.876 13.717 101.721 16.09 94.246 19.165 95.222 16.793 102.697ZM20.586 86.544V86.544L22.631 88.37 25.023 83.413 22.322 82.948C21.138 82.77 19.934 82.563 18.709 82.328 17.482 82.083 16.267 81.844 15.064 81.612V81.612L15.006 81.731C15.958 82.531 16.907 83.329 17.853 84.126 18.799 84.922 19.71 85.728 20.586 86.544ZM29.468 94.526L27.782 98.021 11.415 82.335 13.363 78.297 35.827 81.347 34.083 84.961 28.1 83.945 24.949 90.475ZM41.657 73.381V73.381C40.908 74.519 40.007 75.45 38.952 76.173 37.897 76.897 36.735 77.363 35.465 77.571 34.199 77.773 32.849 77.707 31.414 77.374 29.982 77.035 28.522 76.376 27.032 75.395V75.395C25.564 74.43 24.39 73.347 23.508 72.148 22.627 70.949 22.028 69.711 21.71 68.434 21.389 67.164 21.348 65.889 21.585 64.612 21.823 63.334 22.316 62.126 23.065 60.989V60.989C23.813 59.851 24.705 58.992 25.74 58.409 26.78 57.831 27.792 57.458 28.775 57.289V57.289L29.717 60.354C28.925 60.517 28.205 60.781 27.558 61.146 26.91 61.51 26.358 62.039 25.902 62.733V62.733C25.419 63.467 25.126 64.24 25.024 65.053 24.917 65.871 24.997 66.69 25.265 67.51 25.527 68.326 25.981 69.122 26.627 69.897 27.27 70.679 28.095 71.401 29.102 72.063V72.063C31.16 73.418 33.066 74.033 34.82 73.907 36.569 73.787 37.946 72.965 38.949 71.441V71.441C39.48 70.633 39.781 69.804 39.851 68.954 39.922 68.104 39.852 67.243 39.643 66.372V66.372L42.771 65.985C43.135 67.277 43.232 68.542 43.06 69.782 42.884 71.027 42.416 72.227 41.657 73.381ZM55.559 55.659L46.808 65.696 30.559 51.53 39.089 41.747 41.529 43.874 35.509 50.778 39.658 54.395 44.751 48.553 47.184 50.674 42.09 56.516 46.885 60.697 53.126 53.538ZM65.633 47.375L62.731 49.597 49.625 32.481 52.738 30.097 65.449 35.645 69.988 37.944 70.093 37.863C69.34 37.025 68.526 36.131 67.652 35.179 66.772 34.232 65.966 33.28 65.234 32.324V32.324L59.541 24.889 62.443 22.666 75.549 39.782 72.436 42.166 59.725 36.619 55.193 34.327 55.087 34.408C55.853 35.262 56.662 36.152 57.516 37.076 58.375 37.996 59.17 38.934 59.903 39.891V39.891ZM86.82 34.55V34.55C85.567 35.194 84.304 35.552 83.032 35.624 81.76 35.696 80.528 35.487 79.335 34.998 78.152 34.511 77.038 33.759 75.995 32.742 74.948 31.718 74.024 30.425 73.221 28.862V28.862C72.428 27.318 71.923 25.829 71.706 24.394 71.492 22.965 71.539 21.64 71.845 20.419 72.158 19.195 72.716 18.093 73.522 17.112 74.327 16.132 75.356 15.32 76.61 14.676V14.676C77.857 14.035 79.114 13.673 80.379 13.589 81.645 13.505 82.87 13.691 84.053 14.147 85.242 14.6 86.352 15.331 87.383 16.339 88.424 17.351 89.34 18.629 90.134 20.173V20.173C90.936 21.735 91.449 23.24 91.672 24.687 91.898 26.124 91.855 27.471 91.543 28.726 91.24 29.983 90.689 31.108 89.89 32.1 89.091 33.093 88.068 33.909 86.82 34.55ZM85.299 31.589V31.589C86.056 31.2 86.652 30.684 87.086 30.039 87.527 29.392 87.803 28.649 87.916 27.811 88.031 26.978 87.98 26.067 87.762 25.077 87.554 24.089 87.172 23.057 86.619 21.979V21.979C85.514 19.829 84.203 18.372 82.684 17.606 81.169 16.846 79.651 16.857 78.131 17.637V17.637C76.605 18.421 75.71 19.651 75.445 21.325 75.183 23.006 75.605 24.921 76.709 27.07V27.07C77.263 28.148 77.88 29.06 78.561 29.804 79.245 30.555 79.96 31.125 80.704 31.516 81.451 31.913 82.213 32.122 82.99 32.144 83.766 32.166 84.536 31.981 85.299 31.589ZM101.647 27.861L98.014 29.038 91.368 8.531 98.294 6.287C99.363 5.94 100.391 5.725 101.38 5.641 102.367 5.55 103.271 5.633 104.091 5.889 104.909 6.139 105.638 6.59 106.279 7.241 106.917 7.886 107.422 8.781 107.793 9.928V9.928C108.303 11.502 108.341 12.888 107.907 14.088 107.473 15.288 106.709 16.298 105.615 17.118V17.118L113.275 24.092 109.205 25.411 102.184 18.82 99.046 19.837ZM95.948 10.278L98.111 16.952 101.026 16.007C102.431 15.552 103.408 14.913 103.958 14.091 104.512 13.26 104.598 12.259 104.219 11.086V11.086C103.834 9.901 103.196 9.199 102.302 8.981 101.414 8.76 100.268 8.878 98.863 9.333V9.333ZM121.421 23.02L115.534 23.975 112.081 2.696 117.777 1.772C121.029 1.244 123.709 1.713 125.816 3.178 127.921 4.637 129.259 7.123 129.829 10.638V10.638C130.114 12.392 130.131 13.982 129.879 15.409 129.634 16.829 129.144 18.06 128.41 19.103 127.681 20.139 126.729 20.986 125.553 21.646 124.384 22.305 123.007 22.763 121.421 23.02ZM116.349 5.149L118.808 20.309 120.471 20.039C122.642 19.687 124.204 18.792 125.157 17.355 126.118 15.923 126.385 13.893 125.959 11.266V11.266C125.537 8.665 124.644 6.862 123.281 5.855 121.912 4.857 120.155 4.531 118.012 4.879V4.879ZM149.779 22.327V22.327C148.331 22.25 147.001 21.936 145.79 21.388 144.572 20.839 143.536 20.067 142.682 19.074 141.821 18.081 141.173 16.88 140.737 15.473 140.308 14.066 140.14 12.472 140.236 10.691V10.691C140.329 8.937 140.678 7.377 141.283 6.012 141.881 4.646 142.661 3.505 143.624 2.588 144.586 1.672 145.7 0.995 146.964 0.558 148.235 0.121 149.581-0.059 151.001 0.017V0.017C152.538 0.099 153.825 0.447 154.862 1.062 155.893 1.676 156.729 2.354 157.371 3.098V3.098L155.2 5.457C154.685 4.897 154.1 4.419 153.446 4.023 152.799 3.627 151.969 3.402 150.956 3.348V3.348C149.991 3.297 149.111 3.43 148.317 3.749 147.516 4.068 146.819 4.549 146.225 5.192 145.632 5.828 145.154 6.621 144.789 7.57 144.432 8.519 144.221 9.595 144.157 10.798V10.798C144.025 13.259 144.476 15.216 145.51 16.669 146.544 18.121 148.148 18.906 150.324 19.022V19.022C150.936 19.055 151.521 19.004 152.081 18.871 152.634 18.73 153.095 18.516 153.465 18.229V18.229L153.713 13.589 149.634 13.371 149.8 10.251 157.306 10.652 156.8 20.125C156.033 20.813 155.039 21.37 153.816 21.796 152.593 22.228 151.248 22.405 149.779 22.327ZM163.834 23.899L160.099 23.102 164.598 2.019 171.719 3.539C172.818 3.773 173.816 4.101 174.715 4.523 175.615 4.938 176.356 5.461 176.938 6.094 177.521 6.719 177.927 7.474 178.156 8.359 178.387 9.236 178.376 10.264 178.125 11.443V11.443C177.779 13.061 177.119 14.28 176.143 15.102 175.167 15.924 174 16.417 172.643 16.58V16.58L175.788 26.45 171.604 25.557 168.82 16.338 165.595 15.65ZM167.692 5.823L166.228 12.684 169.224 13.323C170.669 13.631 171.834 13.567 172.721 13.13 173.616 12.687 174.192 11.863 174.449 10.658V10.658C174.709 9.44 174.507 8.513 173.842 7.876 173.184 7.242 172.133 6.77 170.688 6.462V6.462ZM185.813 18.322V18.322L184.155 20.505 189.287 22.496 189.535 19.767C189.619 18.573 189.73 17.356 189.868 16.117 190.014 14.874 190.156 13.643 190.292 12.426V12.426L190.168 12.378C189.447 13.39 188.726 14.4 188.007 15.406 187.288 16.412 186.557 17.384 185.813 18.322ZM178.561 27.809L174.943 26.405 189.282 8.846 193.462 10.468 192.203 33.103 188.462 31.651 189 25.606 182.241 22.983ZM196.935 35.766L193.583 33.936 203.916 15.017 209.876 18.272C210.916 18.84 211.83 19.467 212.618 20.153 213.41 20.834 214.009 21.584 214.415 22.403 214.818 23.228 214.999 24.11 214.959 25.05 214.919 25.99 214.598 27.01 213.998 28.109V28.109C213.427 29.155 212.748 29.964 211.963 30.535 211.178 31.107 210.321 31.469 209.392 31.621 208.466 31.782 207.499 31.743 206.49 31.502 205.487 31.265 204.475 30.867 203.453 30.309V30.309L200.729 28.821ZM205.795 19.545L202.197 26.132 204.662 27.478C207.434 28.992 209.447 28.602 210.7 26.308V26.308C211.352 25.113 211.441 24.091 210.966 23.242 210.488 22.399 209.547 21.594 208.143 20.827V20.827ZM212.016 45.381L208.984 43.059 222.092 25.944 225.124 28.267 219.852 35.15 226.784 40.459 232.055 33.576 235.096 35.904 221.988 53.018 218.948 50.69 224.76 43.101 217.828 37.793ZM227.795 58.974L225.065 56.303 240.146 40.898 242.875 43.57ZM234.323 67.602V67.602C233.413 66.473 232.75 65.21 232.334 63.815 231.913 62.414 231.773 60.997 231.912 59.565V59.565L235.343 59.672C235.264 60.724 235.356 61.777 235.62 62.832 235.89 63.883 236.336 64.795 236.96 65.569V65.569C237.729 66.523 238.51 67.091 239.304 67.274 240.103 67.452 240.826 67.28 241.473 66.759V66.759C241.817 66.481 242.055 66.18 242.187 65.855 242.323 65.536 242.39 65.19 242.386 64.816 242.378 64.438 242.323 64.028 242.221 63.586 242.122 63.149 241.999 62.681 241.849 62.18V62.18L240.987 59.059C240.827 58.514 240.715 57.936 240.65 57.324 240.58 56.716 240.595 56.105 240.695 55.491 240.791 54.872 240.998 54.272 241.317 53.691 241.636 53.111 242.106 52.571 242.726 52.071V52.071C243.389 51.537 244.119 51.18 244.918 51 245.727 50.82 246.542 50.806 247.363 50.958 248.194 51.11 249.008 51.437 249.807 51.939 250.6 52.436 251.328 53.096 251.99 53.917V53.917C252.776 54.893 253.344 55.988 253.692 57.202 254.036 58.42 254.144 59.618 254.018 60.795V60.795L250.901 60.801C250.907 59.896 250.802 59.05 250.586 58.262 250.375 57.479 249.979 56.727 249.398 56.006V56.006C248.753 55.206 248.061 54.705 247.323 54.505 246.589 54.309 245.914 54.46 245.299 54.955V54.955C244.976 55.216 244.755 55.511 244.637 55.843 244.523 56.179 244.477 56.539 244.499 56.924 244.519 57.319 244.588 57.74 244.704 58.188 244.822 58.627 244.948 59.071 245.084 59.522V59.522L245.983 62.574C246.173 63.234 246.297 63.882 246.355 64.517 246.413 65.143 246.384 65.753 246.267 66.345 246.146 66.932 245.917 67.501 245.582 68.051 245.257 68.602 244.784 69.127 244.164 69.627V69.627C243.48 70.178 242.727 70.557 241.906 70.764 241.085 70.971 240.24 70.996 239.371 70.839 238.496 70.687 237.625 70.344 236.758 69.81 235.895 69.282 235.083 68.546 234.323 67.602ZM242.501 78.746L240.766 75.75 259.421 64.946 261.586 68.684 254.371 77.276C253.902 77.823 253.414 78.373 252.908 78.926 252.398 79.473 251.902 80.028 251.418 80.591V80.591L251.479 80.697C252.209 80.558 252.936 80.4 253.66 80.225 254.381 80.043 255.098 79.888 255.81 79.759V79.759L266.801 77.689 268.981 81.453 250.327 92.257 248.561 89.208 257.088 84.27C257.524 84.017 258.007 83.757 258.537 83.49 259.066 83.222 259.604 82.955 260.148 82.686 260.697 82.424 261.236 82.174 261.768 81.937 262.309 81.703 262.807 81.477 263.264 81.26V81.26L263.202 81.154 257.997 82.15 247.84 83.95 246.704 81.988 253.304 74.047 256.774 70.055 256.708 69.94C256.295 70.233 255.85 70.551 255.37 70.891 254.897 71.228 254.412 71.572 253.915 71.923 253.418 72.274 252.921 72.612 252.426 72.939 251.931 73.265 251.465 73.554 251.029 73.807V73.807ZM256.252 108.664L251.603 96.186 271.803 88.66 276.335 100.822 273.301 101.952 270.103 93.369 264.945 95.291 267.651 102.554 264.628 103.68 261.921 96.417 255.96 98.638 259.276 107.538Z" fill="#7a26c1" data-fill-palette-color="primary"></path><path d="M8.949 142.678c0-1.389 1.126-2.515 2.515-2.515 1.389 0 2.515 1.126 2.514 2.515 0 1.389-1.126 2.515-2.514 2.515-1.389 0-2.515-1.126-2.515-2.515zM266.291 142.678c0-1.389 1.126-2.515 2.515-2.515 1.389 0 2.515 1.126 2.515 2.515 0 1.389-1.126 2.515-2.515 2.515-1.389 0-2.515-1.126-2.515-2.515z" fill="#7a26c1" data-fill-palette-color="primary"></path></svg></g></svg></g></svg></g></svg></g><defs></defs></svg><rect width="280" height="280" fill="none" stroke="none" visibility="hidden"></rect></g></svg></g></svg>